<svg width="149" height="22" fill="none" xmlns="http://www.w3.org/2000/svg"><path d="M8 3c-4.411 0-8 3.589-8 8s3.589 8 8 8 8-3.589 8-8-3.589-8-8-8Zm0 15c-3.86 0-7-3.14-7-7s3.14-7 7-7 7 3.14 7 7-3.14 7-7 7Z" fill="#000"/><path d="M8.5 6h-1v5.207l3.146 3.147.707-.707L8.5 10.793V6Z" fill="#000"/><path d="M29.474 16v-2.1h-4.97v-.91l4.76-6.79h1.372v6.664h1.456V13.9h-1.456V16h-1.162Zm-3.668-3.136h3.724V7.502l-3.724 5.362Zm8.043 3.206a.825.825 0 0 1-.588-.224.807.807 0 0 1-.224-.574.76.76 0 0 1 .224-.56.798.798 0 0 1 .588-.238c.224 0 .41.08.56.238.158.15.238.336.238.56 0 .224-.08.415-.238.574a.76.76 0 0 1-.56.224Zm5.66.098c-.869 0-1.62-.21-2.255-.63-.625-.43-1.106-1.022-1.442-1.778-.336-.765-.504-1.652-.504-2.66 0-1.008.168-1.89.504-2.646.336-.765.817-1.358 1.442-1.778.635-.43 1.386-.644 2.254-.644.868 0 1.615.215 2.24.644.626.42 1.106 1.013 1.442 1.778.336.756.504 1.638.504 2.646s-.168 1.895-.504 2.66c-.336.756-.816 1.349-1.442 1.778-.625.42-1.372.63-2.24.63Zm0-1.036c.569 0 1.077-.159 1.525-.476.458-.327.812-.789 1.064-1.386.262-.607.392-1.33.392-2.17 0-.84-.13-1.559-.392-2.156-.252-.597-.606-1.055-1.064-1.372a2.525 2.525 0 0 0-1.526-.49c-.578 0-1.092.163-1.54.49-.448.317-.802.775-1.064 1.372-.26.597-.392 1.316-.392 2.156 0 .84.131 1.563.392 2.17.262.597.616 1.06 1.064 1.386.448.317.962.476 1.54.476Zm9.706 1.036c-.868 0-1.619-.21-2.254-.63-.625-.43-1.106-1.022-1.442-1.778-.336-.765-.504-1.652-.504-2.66 0-1.008.168-1.89.504-2.646.336-.765.817-1.358 1.442-1.778.635-.43 1.386-.644 2.254-.644.868 0 1.615.215 2.24.644.626.42 1.106 1.013 1.442 1.778.336.756.504 1.638.504 2.646s-.168 1.895-.504 2.66c-.336.756-.816 1.349-1.442 1.778-.625.42-1.372.63-2.24.63Zm0-1.036c.57 0 1.078-.159 1.526-.476.458-.327.812-.789 1.064-1.386.262-.607.392-1.33.392-2.17 0-.84-.13-1.559-.392-2.156-.252-.597-.606-1.055-1.064-1.372a2.525 2.525 0 0 0-1.526-.49c-.578 0-1.092.163-1.54.49-.448.317-.802.775-1.064 1.372-.26.597-.392 1.316-.392 2.156 0 .84.131 1.563.392 2.17.262.597.616 1.06 1.064 1.386.448.317.962.476 1.54.476Zm9.52 3.948V9.056H59.8l.111 1.148c.224-.336.542-.64.953-.91.42-.27.952-.406 1.596-.406.69 0 1.292.159 1.806.476.513.317.91.751 1.19 1.302.289.55.433 1.176.433 1.876s-.144 1.325-.433 1.876a3.2 3.2 0 0 1-1.205 1.288c-.513.308-1.115.462-1.806.462-.569 0-1.078-.117-1.526-.35a2.431 2.431 0 0 1-1.008-.98v4.242h-1.175Zm3.584-3.934c.467 0 .878-.107 1.232-.322.355-.224.635-.532.84-.924.206-.392.308-.85.308-1.372 0-.523-.102-.98-.308-1.372a2.265 2.265 0 0 0-.84-.91 2.258 2.258 0 0 0-1.232-.336c-.466 0-.877.112-1.232.336a2.266 2.266 0 0 0-.84.91c-.205.392-.307.85-.307 1.372 0 .523.102.98.308 1.372.205.392.485.7.84.924.354.215.765.322 1.231.322Zm5.207.854V9.056h1.065l.084 1.008c.224-.373.522-.663.895-.868a2.571 2.571 0 0 1 1.26-.308c.551 0 1.023.112 1.415.336.4.224.709.565.923 1.022.243-.42.575-.751.994-.994.43-.243.892-.364 1.386-.364.831 0 1.494.252 1.989.756.494.495.741 1.26.741 2.296V16h-1.162v-3.934c0-.719-.144-1.26-.433-1.624-.29-.364-.705-.546-1.247-.546-.56 0-1.026.22-1.4.658-.364.43-.546 1.045-.546 1.848V16h-1.175v-3.934c0-.719-.145-1.26-.434-1.624-.29-.364-.705-.546-1.246-.546-.551 0-1.013.22-1.386.658-.364.43-.546 1.045-.546 1.848V16h-1.177Zm16.09-3.57v-.994h5.543v.994h-5.544Zm14.326 3.738c-.644 0-1.223-.117-1.736-.35a3.065 3.065 0 0 1-1.218-.994 2.592 2.592 0 0 1-.434-1.484c0-.597.172-1.134.518-1.61a2.533 2.533 0 0 1 1.4-.952c-.532-.177-.943-.462-1.232-.854a2.121 2.121 0 0 1-.434-1.288c0-.476.126-.91.378-1.302a2.62 2.62 0 0 1 1.078-.952c.466-.233 1.026-.35 1.68-.35.653 0 1.213.117 1.68.35.467.233.826.55 1.078.952.252.392.378.826.378 1.302 0 .457-.145.887-.434 1.288-.289.392-.7.677-1.232.854a2.467 2.467 0 0 1 1.386.952c.355.476.532 1.013.532 1.61 0 .56-.149 1.055-.448 1.484-.289.42-.691.751-1.204.994-.513.233-1.092.35-1.736.35Zm0-5.81c.597 0 1.069-.15 1.414-.448.355-.308.532-.71.532-1.204 0-.55-.173-.966-.518-1.246-.346-.28-.822-.42-1.428-.42-.607 0-1.083.14-1.428.42-.336.28-.504.695-.504 1.246 0 .495.172.896.518 1.204.345.299.816.448 1.414.448Zm0 4.774c.737 0 1.288-.168 1.652-.504.373-.345.56-.798.56-1.358 0-.635-.2-1.115-.602-1.442-.402-.327-.938-.49-1.61-.49-.672 0-1.209.163-1.61.49-.401.327-.602.807-.602 1.442 0 .56.182 1.013.546 1.358.373.336.928.504 1.666.504Zm5.647.938a.823.823 0 0 1-.588-.224.805.805 0 0 1-.224-.574c0-.224.074-.41.224-.56a.797.797 0 0 1 .588-.238c.224 0 .41.08.56.238a.74.74 0 0 1 .238.56c0 .224-.08.415-.238.574a.761.761 0 0 1-.56.224Zm5.66.098c-.868 0-1.62-.21-2.254-.63-.626-.43-1.106-1.022-1.442-1.778-.336-.765-.504-1.652-.504-2.66 0-1.008.168-1.89.504-2.646.336-.765.816-1.358 1.442-1.778.634-.43 1.386-.644 2.254-.644.868 0 1.614.215 2.24.644.625.42 1.106 1.013 1.442 1.778.336.756.504 1.638.504 2.646s-.168 1.895-.504 2.66c-.336.756-.817 1.349-1.442 1.778-.626.42-1.372.63-2.24.63Zm0-1.036c.569 0 1.078-.159 1.526-.476.457-.327.812-.789 1.064-1.386.261-.607.392-1.33.392-2.17 0-.84-.131-1.559-.392-2.156-.252-.597-.607-1.055-1.064-1.372a2.525 2.525 0 0 0-1.526-.49c-.579 0-1.092.163-1.54.49-.448.317-.803.775-1.064 1.372-.262.597-.392 1.316-.392 2.156 0 .84.13 1.563.392 2.17.261.597.616 1.06 1.064 1.386.448.317.961.476 1.54.476Zm9.707 1.036c-.868 0-1.62-.21-2.254-.63-.626-.43-1.106-1.022-1.442-1.778-.336-.765-.504-1.652-.504-2.66 0-1.008.168-1.89.504-2.646.336-.765.816-1.358 1.442-1.778.634-.43 1.386-.644 2.254-.644.868 0 1.614.215 2.24.644.625.42 1.106 1.013 1.442 1.778.336.756.504 1.638.504 2.646s-.168 1.895-.504 2.66c-.336.756-.817 1.349-1.442 1.778-.626.42-1.372.63-2.24.63Zm0-1.036c.569 0 1.078-.159 1.526-.476.457-.327.812-.789 1.064-1.386.261-.607.392-1.33.392-2.17 0-.84-.131-1.559-.392-2.156-.252-.597-.607-1.055-1.064-1.372a2.525 2.525 0 0 0-1.526-.49c-.579 0-1.092.163-1.54.49-.448.317-.803.775-1.064 1.372-.262.597-.392 1.316-.392 2.156 0 .84.13 1.563.392 2.17.261.597.616 1.06 1.064 1.386.448.317.961.476 1.54.476Zm9.52 3.948V9.056h1.064l.112 1.148c.224-.336.541-.64.952-.91.42-.27.952-.406 1.596-.406.69 0 1.292.159 1.806.476.513.317.91.751 1.19 1.302.289.55.434 1.176.434 1.876s-.145 1.325-.434 1.876c-.28.541-.682.97-1.204 1.288-.514.308-1.116.462-1.806.462-.57 0-1.078-.117-1.526-.35a2.426 2.426 0 0 1-1.008-.98v4.242h-1.176Zm3.584-3.934c.466 0 .877-.107 1.232-.322.354-.224.634-.532.84-.924.205-.392.308-.85.308-1.372 0-.523-.103-.98-.308-1.372a2.275 2.275 0 0 0-2.072-1.246c-.467 0-.878.112-1.232.336a2.26 2.26 0 0 0-.84.91c-.206.392-.308.85-.308 1.372 0 .523.102.98.308 1.372.205.392.485.7.84.924a2.33 2.33 0 0 0 1.232.322Zm5.207.854V9.056h1.064l.084 1.008c.224-.373.522-.663.896-.868a2.569 2.569 0 0 1 1.26-.308c.55 0 1.022.112 1.414.336.401.224.709.565.924 1.022.242-.42.574-.751.994-.994a2.77 2.77 0 0 1 1.386-.364c.83 0 1.493.252 1.988.756.494.495.742 1.26.742 2.296V16h-1.162v-3.934c0-.719-.145-1.26-.434-1.624-.29-.364-.705-.546-1.246-.546-.56 0-1.027.22-1.4.658-.364.43-.546 1.045-.546 1.848V16h-1.176v-3.934c0-.719-.145-1.26-.434-1.624-.29-.364-.705-.546-1.246-.546-.551 0-1.013.22-1.386.658-.364.43-.546 1.045-.546 1.848V16h-1.176Z" fill="#555"/></svg>