<svg width="42" height="22" viewBox="0 0 42 22" fill="none" xmlns="http://www.w3.org/2000/svg">
<path d="M7.80979 3.58541C7.86966 3.40115 8.13034 3.40115 8.19021 3.58541L9.75121 8.38967C9.77798 8.47207 9.85478 8.52786 9.94142 8.52786H14.9929C15.1867 8.52786 15.2672 8.77579 15.1105 8.88967L11.0237 11.8589C10.9536 11.9098 10.9243 12.0001 10.9511 12.0825L12.5121 16.8867C12.5719 17.071 12.361 17.2242 12.2043 17.1103L8.11756 14.1411C8.04746 14.0902 7.95254 14.0902 7.88244 14.1411L3.7957 17.1103C3.63895 17.2242 3.42806 17.071 3.48793 16.8867L5.04893 12.0825C5.0757 12.0001 5.04637 11.9098 4.97627 11.8589L0.889527 8.88967C0.732784 8.77579 0.81334 8.52786 1.00708 8.52786H6.05858C6.14523 8.52786 6.22202 8.47207 6.24879 8.38967L7.80979 3.58541Z" fill="#086CF9"/>
<path d="M27.474 16V13.9H22.504V12.99L27.264 6.2H28.636V12.864H30.092V13.9H28.636V16H27.474ZM23.806 12.864H27.53V7.502L23.806 12.864ZM31.8486 16.07C31.6152 16.07 31.4192 15.9953 31.2606 15.846C31.1112 15.6873 31.0366 15.496 31.0366 15.272C31.0366 15.048 31.1112 14.8613 31.2606 14.712C31.4192 14.5533 31.6152 14.474 31.8486 14.474C32.0726 14.474 32.2592 14.5533 32.4086 14.712C32.5672 14.8613 32.6466 15.048 32.6466 15.272C32.6466 15.496 32.5672 15.6873 32.4086 15.846C32.2592 15.9953 32.0726 16.07 31.8486 16.07ZM37.5789 16.168C36.9069 16.168 36.3236 16.0467 35.8289 15.804C35.3343 15.5613 34.9376 15.23 34.6389 14.81C34.3496 14.3807 34.1723 13.8953 34.1069 13.354H35.2549C35.3669 13.8953 35.6283 14.334 36.0389 14.67C36.4496 14.9967 36.9676 15.16 37.5929 15.16C38.0596 15.16 38.4609 15.0527 38.7969 14.838C39.1329 14.614 39.3896 14.3153 39.5669 13.942C39.7536 13.5687 39.8469 13.1533 39.8469 12.696C39.8469 11.968 39.6416 11.38 39.2309 10.932C38.8203 10.484 38.2883 10.26 37.6349 10.26C37.0936 10.26 36.6316 10.3813 36.2489 10.624C35.8663 10.8667 35.5863 11.184 35.4089 11.576H34.2889L35.1289 6.2H40.2669V7.222H36.0389L35.4649 10.204C35.6889 9.93333 35.9969 9.70933 36.3889 9.532C36.7903 9.35467 37.2476 9.266 37.7609 9.266C38.4049 9.266 38.9649 9.41533 39.4409 9.714C39.9263 10.0127 40.3043 10.4187 40.5749 10.932C40.8456 11.4453 40.9809 12.0287 40.9809 12.682C40.9809 13.3073 40.8456 13.886 40.5749 14.418C40.3136 14.95 39.9263 15.3747 39.4129 15.692C38.9089 16.0093 38.2976 16.168 37.5789 16.168Z" fill="#555555"/>
</svg>
