<svg width="149" height="22" viewBox="0 0 149 22" fill="none" xmlns="http://www.w3.org/2000/svg">
<path d="M8 3C3.58888 3 0 6.58888 0 11C0 15.4111 3.58888 19 8 19C12.4111 19 16 15.4111 16 11C16 6.58888 12.4111 3 8 3ZM8 18C4.14013 18 1 14.8599 1 11C1 7.14013 4.14013 4 8 4C11.8599 4 15 7.14013 15 11C15 14.8599 11.8599 18 8 18Z" fill="black"/>
<path d="M8.5 6.00049H7.5V11.2075L10.6465 14.354L11.3535 13.647L8.5 10.7934V6.00049Z" fill="black"/>
<path d="M29.474 16V13.9H24.504V12.99L29.264 6.2H30.636V12.864H32.092V13.9H30.636V16H29.474ZM25.806 12.864H29.53V7.502L25.806 12.864ZM33.8486 16.07C33.6152 16.07 33.4192 15.9953 33.2606 15.846C33.1112 15.6873 33.0366 15.496 33.0366 15.272C33.0366 15.048 33.1112 14.8613 33.2606 14.712C33.4192 14.5533 33.6152 14.474 33.8486 14.474C34.0726 14.474 34.2592 14.5533 34.4086 14.712C34.5672 14.8613 34.6466 15.048 34.6466 15.272C34.6466 15.496 34.5672 15.6873 34.4086 15.846C34.2592 15.9953 34.0726 16.07 33.8486 16.07ZM39.5084 16.168C38.6404 16.168 37.8891 15.958 37.2544 15.538C36.6291 15.1087 36.1484 14.516 35.8124 13.76C35.4764 12.9947 35.3084 12.108 35.3084 11.1C35.3084 10.092 35.4764 9.21 35.8124 8.454C36.1484 7.68867 36.6291 7.096 37.2544 6.676C37.8891 6.24667 38.6404 6.032 39.5084 6.032C40.3764 6.032 41.1231 6.24667 41.7484 6.676C42.3737 7.096 42.8544 7.68867 43.1904 8.454C43.5264 9.21 43.6944 10.092 43.6944 11.1C43.6944 12.108 43.5264 12.9947 43.1904 13.76C42.8544 14.516 42.3737 15.1087 41.7484 15.538C41.1231 15.958 40.3764 16.168 39.5084 16.168ZM39.5084 15.132C40.0777 15.132 40.5864 14.9733 41.0344 14.656C41.4917 14.3293 41.8464 13.8673 42.0984 13.27C42.3597 12.6633 42.4904 11.94 42.4904 11.1C42.4904 10.26 42.3597 9.54133 42.0984 8.944C41.8464 8.34667 41.4917 7.88933 41.0344 7.572C40.5864 7.24533 40.0777 7.082 39.5084 7.082C38.9297 7.082 38.4164 7.24533 37.9684 7.572C37.5204 7.88933 37.1657 8.34667 36.9044 8.944C36.6431 9.54133 36.5124 10.26 36.5124 11.1C36.5124 11.94 36.6431 12.6633 36.9044 13.27C37.1657 13.8673 37.5204 14.3293 37.9684 14.656C38.4164 14.9733 38.9297 15.132 39.5084 15.132ZM49.2154 16.168C48.3474 16.168 47.5961 15.958 46.9614 15.538C46.3361 15.1087 45.8554 14.516 45.5194 13.76C45.1834 12.9947 45.0154 12.108 45.0154 11.1C45.0154 10.092 45.1834 9.21 45.5194 8.454C45.8554 7.68867 46.3361 7.096 46.9614 6.676C47.5961 6.24667 48.3474 6.032 49.2154 6.032C50.0834 6.032 50.8301 6.24667 51.4554 6.676C52.0808 7.096 52.5614 7.68867 52.8974 8.454C53.2334 9.21 53.4014 10.092 53.4014 11.1C53.4014 12.108 53.2334 12.9947 52.8974 13.76C52.5614 14.516 52.0808 15.1087 51.4554 15.538C50.8301 15.958 50.0834 16.168 49.2154 16.168ZM49.2154 15.132C49.7848 15.132 50.2934 14.9733 50.7414 14.656C51.1988 14.3293 51.5534 13.8673 51.8054 13.27C52.0668 12.6633 52.1974 11.94 52.1974 11.1C52.1974 10.26 52.0668 9.54133 51.8054 8.944C51.5534 8.34667 51.1988 7.88933 50.7414 7.572C50.2934 7.24533 49.7848 7.082 49.2154 7.082C48.6368 7.082 48.1234 7.24533 47.6754 7.572C47.2274 7.88933 46.8728 8.34667 46.6114 8.944C46.3501 9.54133 46.2194 10.26 46.2194 11.1C46.2194 11.94 46.3501 12.6633 46.6114 13.27C46.8728 13.8673 47.2274 14.3293 47.6754 14.656C48.1234 14.9733 48.6368 15.132 49.2154 15.132ZM58.7355 19.08V9.056H59.7995L59.9115 10.204C60.1355 9.868 60.4529 9.56467 60.8635 9.294C61.2835 9.02333 61.8155 8.888 62.4595 8.888C63.1502 8.888 63.7522 9.04667 64.2655 9.364C64.7789 9.68133 65.1755 10.1153 65.4555 10.666C65.7449 11.2167 65.8895 11.842 65.8895 12.542C65.8895 13.242 65.7449 13.8673 65.4555 14.418C65.1755 14.9593 64.7742 15.3887 64.2515 15.706C63.7382 16.014 63.1362 16.168 62.4455 16.168C61.8762 16.168 61.3675 16.0513 60.9195 15.818C60.4809 15.5847 60.1449 15.258 59.9115 14.838V19.08H58.7355ZM62.3195 15.146C62.7862 15.146 63.1969 15.0387 63.5515 14.824C63.9062 14.6 64.1862 14.292 64.3915 13.9C64.5969 13.508 64.6995 13.0507 64.6995 12.528C64.6995 12.0053 64.5969 11.548 64.3915 11.156C64.1862 10.764 63.9062 10.4607 63.5515 10.246C63.1969 10.022 62.7862 9.91 62.3195 9.91C61.8529 9.91 61.4422 10.022 61.0875 10.246C60.7329 10.4607 60.4529 10.764 60.2475 11.156C60.0422 11.548 59.9395 12.0053 59.9395 12.528C59.9395 13.0507 60.0422 13.508 60.2475 13.9C60.4529 14.292 60.7329 14.6 61.0875 14.824C61.4422 15.0387 61.8529 15.146 62.3195 15.146ZM67.5265 16V9.056H68.5905L68.6745 10.064C68.8985 9.69067 69.1972 9.40133 69.5705 9.196C69.9439 8.99067 70.3639 8.888 70.8305 8.888C71.3812 8.888 71.8525 9 72.2445 9.224C72.6459 9.448 72.9539 9.78867 73.1685 10.246C73.4112 9.826 73.7425 9.49467 74.1625 9.252C74.5919 9.00933 75.0539 8.888 75.5485 8.888C76.3792 8.888 77.0419 9.14 77.5365 9.644C78.0312 10.1387 78.2785 10.904 78.2785 11.94V16H77.1165V12.066C77.1165 11.3473 76.9719 10.806 76.6825 10.442C76.3932 10.078 75.9779 9.896 75.4365 9.896C74.8765 9.896 74.4099 10.1153 74.0365 10.554C73.6725 10.9833 73.4905 11.5993 73.4905 12.402V16H72.3145V12.066C72.3145 11.3473 72.1699 10.806 71.8805 10.442C71.5912 10.078 71.1759 9.896 70.6345 9.896C70.0839 9.896 69.6219 10.1153 69.2485 10.554C68.8845 10.9833 68.7025 11.5993 68.7025 12.402V16H67.5265ZM83.6151 12.43V11.436H89.1591V12.43H83.6151ZM97.9419 16.168C97.2979 16.168 96.7192 16.0513 96.2059 15.818C95.6925 15.5753 95.2865 15.244 94.9879 14.824C94.6985 14.3947 94.5539 13.9 94.5539 13.34C94.5539 12.7427 94.7265 12.206 95.0719 11.73C95.4265 11.254 95.8932 10.9367 96.4719 10.778C95.9399 10.6007 95.5292 10.316 95.2399 9.924C94.9505 9.532 94.8059 9.10267 94.8059 8.636C94.8059 8.16 94.9319 7.726 95.1839 7.334C95.4359 6.93267 95.7952 6.61533 96.2619 6.382C96.7285 6.14867 97.2885 6.032 97.9419 6.032C98.5952 6.032 99.1552 6.14867 99.6219 6.382C100.089 6.61533 100.448 6.93267 100.7 7.334C100.952 7.726 101.078 8.16 101.078 8.636C101.078 9.09333 100.933 9.52267 100.644 9.924C100.355 10.316 99.9439 10.6007 99.4119 10.778C99.9905 10.9367 100.453 11.254 100.798 11.73C101.153 12.206 101.33 12.7427 101.33 13.34C101.33 13.9 101.181 14.3947 100.882 14.824C100.593 15.244 100.191 15.5753 99.6779 15.818C99.1645 16.0513 98.5859 16.168 97.9419 16.168ZM97.9419 10.358C98.5392 10.358 99.0105 10.2087 99.3559 9.91C99.7105 9.602 99.8879 9.20067 99.8879 8.706C99.8879 8.15533 99.7152 7.74 99.3699 7.46C99.0245 7.18 98.5485 7.04 97.9419 7.04C97.3352 7.04 96.8592 7.18 96.5139 7.46C96.1779 7.74 96.0099 8.15533 96.0099 8.706C96.0099 9.20067 96.1825 9.602 96.5279 9.91C96.8732 10.2087 97.3445 10.358 97.9419 10.358ZM97.9419 15.132C98.6792 15.132 99.2299 14.964 99.5939 14.628C99.9672 14.2827 100.154 13.83 100.154 13.27C100.154 12.6353 99.9532 12.1547 99.5519 11.828C99.1505 11.5013 98.6139 11.338 97.9419 11.338C97.2699 11.338 96.7332 11.5013 96.3319 11.828C95.9305 12.1547 95.7299 12.6353 95.7299 13.27C95.7299 13.83 95.9119 14.2827 96.2759 14.628C96.6492 14.964 97.2045 15.132 97.9419 15.132ZM103.589 16.07C103.355 16.07 103.159 15.9953 103.001 15.846C102.851 15.6873 102.777 15.496 102.777 15.272C102.777 15.048 102.851 14.8613 103.001 14.712C103.159 14.5533 103.355 14.474 103.589 14.474C103.813 14.474 103.999 14.5533 104.149 14.712C104.307 14.8613 104.387 15.048 104.387 15.272C104.387 15.496 104.307 15.6873 104.149 15.846C103.999 15.9953 103.813 16.07 103.589 16.07ZM109.249 16.168C108.381 16.168 107.629 15.958 106.995 15.538C106.369 15.1087 105.889 14.516 105.553 13.76C105.217 12.9947 105.049 12.108 105.049 11.1C105.049 10.092 105.217 9.21 105.553 8.454C105.889 7.68867 106.369 7.096 106.995 6.676C107.629 6.24667 108.381 6.032 109.249 6.032C110.117 6.032 110.863 6.24667 111.489 6.676C112.114 7.096 112.595 7.68867 112.931 8.454C113.267 9.21 113.435 10.092 113.435 11.1C113.435 12.108 113.267 12.9947 112.931 13.76C112.595 14.516 112.114 15.1087 111.489 15.538C110.863 15.958 110.117 16.168 109.249 16.168ZM109.249 15.132C109.818 15.132 110.327 14.9733 110.775 14.656C111.232 14.3293 111.587 13.8673 111.839 13.27C112.1 12.6633 112.231 11.94 112.231 11.1C112.231 10.26 112.1 9.54133 111.839 8.944C111.587 8.34667 111.232 7.88933 110.775 7.572C110.327 7.24533 109.818 7.082 109.249 7.082C108.67 7.082 108.157 7.24533 107.709 7.572C107.261 7.88933 106.906 8.34667 106.645 8.944C106.383 9.54133 106.253 10.26 106.253 11.1C106.253 11.94 106.383 12.6633 106.645 13.27C106.906 13.8673 107.261 14.3293 107.709 14.656C108.157 14.9733 108.67 15.132 109.249 15.132ZM118.956 16.168C118.088 16.168 117.336 15.958 116.702 15.538C116.076 15.1087 115.596 14.516 115.26 13.76C114.924 12.9947 114.756 12.108 114.756 11.1C114.756 10.092 114.924 9.21 115.26 8.454C115.596 7.68867 116.076 7.096 116.702 6.676C117.336 6.24667 118.088 6.032 118.956 6.032C119.824 6.032 120.57 6.24667 121.196 6.676C121.821 7.096 122.302 7.68867 122.638 8.454C122.974 9.21 123.142 10.092 123.142 11.1C123.142 12.108 122.974 12.9947 122.638 13.76C122.302 14.516 121.821 15.1087 121.196 15.538C120.57 15.958 119.824 16.168 118.956 16.168ZM118.956 15.132C119.525 15.132 120.034 14.9733 120.482 14.656C120.939 14.3293 121.294 13.8673 121.546 13.27C121.807 12.6633 121.938 11.94 121.938 11.1C121.938 10.26 121.807 9.54133 121.546 8.944C121.294 8.34667 120.939 7.88933 120.482 7.572C120.034 7.24533 119.525 7.082 118.956 7.082C118.377 7.082 117.864 7.24533 117.416 7.572C116.968 7.88933 116.613 8.34667 116.352 8.944C116.09 9.54133 115.96 10.26 115.96 11.1C115.96 11.94 116.09 12.6633 116.352 13.27C116.613 13.8673 116.968 14.3293 117.416 14.656C117.864 14.9733 118.377 15.132 118.956 15.132ZM128.476 19.08V9.056H129.54L129.652 10.204C129.876 9.868 130.193 9.56467 130.604 9.294C131.024 9.02333 131.556 8.888 132.2 8.888C132.89 8.888 133.492 9.04667 134.006 9.364C134.519 9.68133 134.916 10.1153 135.196 10.666C135.485 11.2167 135.63 11.842 135.63 12.542C135.63 13.242 135.485 13.8673 135.196 14.418C134.916 14.9593 134.514 15.3887 133.992 15.706C133.478 16.014 132.876 16.168 132.186 16.168C131.616 16.168 131.108 16.0513 130.66 15.818C130.221 15.5847 129.885 15.258 129.652 14.838V19.08H128.476ZM132.06 15.146C132.526 15.146 132.937 15.0387 133.292 14.824C133.646 14.6 133.926 14.292 134.132 13.9C134.337 13.508 134.44 13.0507 134.44 12.528C134.44 12.0053 134.337 11.548 134.132 11.156C133.926 10.764 133.646 10.4607 133.292 10.246C132.937 10.022 132.526 9.91 132.06 9.91C131.593 9.91 131.182 10.022 130.828 10.246C130.473 10.4607 130.193 10.764 129.988 11.156C129.782 11.548 129.68 12.0053 129.68 12.528C129.68 13.0507 129.782 13.508 129.988 13.9C130.193 14.292 130.473 14.6 130.828 14.824C131.182 15.0387 131.593 15.146 132.06 15.146ZM137.267 16V9.056H138.331L138.415 10.064C138.639 9.69067 138.937 9.40133 139.311 9.196C139.684 8.99067 140.104 8.888 140.571 8.888C141.121 8.888 141.593 9 141.985 9.224C142.386 9.448 142.694 9.78867 142.909 10.246C143.151 9.826 143.483 9.49467 143.903 9.252C144.332 9.00933 144.794 8.888 145.289 8.888C146.119 8.888 146.782 9.14 147.277 9.644C147.771 10.1387 148.019 10.904 148.019 11.94V16H146.857V12.066C146.857 11.3473 146.712 10.806 146.423 10.442C146.133 10.078 145.718 9.896 145.177 9.896C144.617 9.896 144.15 10.1153 143.777 10.554C143.413 10.9833 143.231 11.5993 143.231 12.402V16H142.055V12.066C142.055 11.3473 141.91 10.806 141.621 10.442C141.331 10.078 140.916 9.896 140.375 9.896C139.824 9.896 139.362 10.1153 138.989 10.554C138.625 10.9833 138.443 11.5993 138.443 12.402V16H137.267Z" fill="#555555"/>
</svg>
