<svg width="142" height="22" viewBox="0 0 142 22" fill="none" xmlns="http://www.w3.org/2000/svg">
<path d="M8 3C4.89838 3 2.375 5.52338 2.375 8.625C2.375 9.67294 2.66528 10.6956 3.21466 11.5829L7.67981 18.7784C7.76534 18.9163 7.91603 19 8.07809 19C8.07934 19 8.08056 19 8.08181 19C8.24528 18.9987 8.39628 18.9124 8.48025 18.7721L12.8316 11.5069C13.3507 10.6384 13.625 9.64184 13.625 8.625C13.625 5.52338 11.1016 3 8 3ZM12.0271 11.0256L8.071 17.6308L4.01147 11.0889C3.55419 10.3504 3.30625 9.49844 3.30625 8.625C3.30625 6.04031 5.41531 3.93125 8 3.93125C10.5847 3.93125 12.6906 6.04031 12.6906 8.625C12.6906 9.47253 12.459 10.3027 12.0271 11.0256Z" fill="black"/>
<path d="M8 5.8125C6.44919 5.8125 5.1875 7.07419 5.1875 8.625C5.1875 10.1659 6.42866 11.4375 8 11.4375C9.59072 11.4375 10.8125 10.149 10.8125 8.625C10.8125 7.07419 9.55081 5.8125 8 5.8125ZM8 10.5062C6.96072 10.5062 6.11875 9.66147 6.11875 8.625C6.11875 7.59113 6.96613 6.74375 8 6.74375C9.03387 6.74375 9.87813 7.59113 9.87813 8.625C9.87813 9.64634 9.05575 10.5062 8 10.5062Z" fill="black"/>
<path d="M25.036 16V6.2H28.046C29.7727 6.2 31.042 6.63867 31.854 7.516C32.6753 8.39333 33.086 9.59733 33.086 11.128C33.086 12.6307 32.6753 13.8207 31.854 14.698C31.042 15.566 29.7727 16 28.046 16H25.036ZM26.212 15.02H28.018C28.97 15.02 29.726 14.866 30.286 14.558C30.8553 14.2407 31.2613 13.7927 31.504 13.214C31.7467 12.626 31.868 11.9307 31.868 11.128C31.868 10.3067 31.7467 9.602 31.504 9.014C31.2613 8.426 30.8553 7.97333 30.286 7.656C29.726 7.33867 28.97 7.18 28.018 7.18H26.212V15.02ZM34.714 16V5.92H35.89V10.246C36.1234 9.81667 36.4547 9.48533 36.884 9.252C37.3134 9.00933 37.78 8.888 38.284 8.888C39.0867 8.888 39.7307 9.14 40.216 9.644C40.7014 10.1387 40.944 10.904 40.944 11.94V16H39.782V12.066C39.782 10.6193 39.1987 9.896 38.032 9.896C37.4254 9.896 36.9167 10.1153 36.506 10.554C36.0954 10.9833 35.89 11.5993 35.89 12.402V16H34.714ZM45.0358 16.168C44.4571 16.168 43.9764 16.07 43.5938 15.874C43.2111 15.678 42.9264 15.4167 42.7398 15.09C42.5531 14.7633 42.4598 14.4087 42.4598 14.026C42.4598 13.3167 42.7304 12.7707 43.2718 12.388C43.8131 12.0053 44.5504 11.814 45.4838 11.814H47.3598V11.73C47.3598 11.1233 47.2011 10.666 46.8838 10.358C46.5664 10.0407 46.1418 9.882 45.6098 9.882C45.1524 9.882 44.7558 9.99867 44.4198 10.232C44.0931 10.456 43.8878 10.7873 43.8038 11.226H42.5998C42.6464 10.722 42.8144 10.2973 43.1038 9.952C43.4024 9.60667 43.7711 9.34533 44.2098 9.168C44.6484 8.98133 45.1151 8.888 45.6098 8.888C46.5804 8.888 47.3084 9.14933 47.7938 9.672C48.2884 10.1853 48.5358 10.8713 48.5358 11.73V16H47.4858L47.4158 14.754C47.2198 15.146 46.9304 15.482 46.5478 15.762C46.1744 16.0327 45.6704 16.168 45.0358 16.168ZM45.2178 15.174C45.6658 15.174 46.0484 15.0573 46.3658 14.824C46.6924 14.5907 46.9398 14.2873 47.1078 13.914C47.2758 13.5407 47.3598 13.1487 47.3598 12.738V12.724H45.5818C44.8911 12.724 44.4011 12.8453 44.1118 13.088C43.8318 13.3213 43.6918 13.6153 43.6918 13.97C43.6918 14.334 43.8224 14.628 44.0838 14.852C44.3544 15.0667 44.7324 15.174 45.2178 15.174ZM50.3 16V5.92H51.476V11.982L54.318 9.056H55.76L52.68 12.192L56.152 16H54.654L51.476 12.402V16H50.3ZM59.61 16.168C59.0313 16.168 58.5507 16.07 58.168 15.874C57.7853 15.678 57.5007 15.4167 57.314 15.09C57.1273 14.7633 57.034 14.4087 57.034 14.026C57.034 13.3167 57.3047 12.7707 57.846 12.388C58.3873 12.0053 59.1247 11.814 60.058 11.814H61.934V11.73C61.934 11.1233 61.7753 10.666 61.458 10.358C61.1407 10.0407 60.716 9.882 60.184 9.882C59.7267 9.882 59.33 9.99867 58.994 10.232C58.6673 10.456 58.462 10.7873 58.378 11.226H57.174C57.2207 10.722 57.3887 10.2973 57.678 9.952C57.9767 9.60667 58.3453 9.34533 58.784 9.168C59.2227 8.98133 59.6893 8.888 60.184 8.888C61.1547 8.888 61.8827 9.14933 62.368 9.672C62.8627 10.1853 63.11 10.8713 63.11 11.73V16H62.06L61.99 14.754C61.794 15.146 61.5047 15.482 61.122 15.762C60.7487 16.0327 60.2447 16.168 59.61 16.168ZM59.792 15.174C60.24 15.174 60.6227 15.0573 60.94 14.824C61.2667 14.5907 61.514 14.2873 61.682 13.914C61.85 13.5407 61.934 13.1487 61.934 12.738V12.724H60.156C59.4653 12.724 58.9753 12.8453 58.686 13.088C58.406 13.3213 58.266 13.6153 58.266 13.97C58.266 14.334 58.3967 14.628 58.658 14.852C58.9287 15.0667 59.3067 15.174 59.792 15.174ZM68.6493 16V6.2H72.0933C72.7839 6.2 73.3533 6.312 73.8013 6.536C74.2586 6.75067 74.5993 7.04933 74.8233 7.432C75.0473 7.80533 75.1593 8.22533 75.1593 8.692C75.1593 9.32667 74.9866 9.826 74.6413 10.19C74.3053 10.554 73.8993 10.806 73.4233 10.946C73.7873 11.0113 74.1186 11.156 74.4173 11.38C74.7159 11.604 74.9493 11.884 75.1173 12.22C75.2946 12.556 75.3833 12.9247 75.3833 13.326C75.3833 13.8207 75.2619 14.2733 75.0193 14.684C74.7766 15.0853 74.4173 15.4073 73.9413 15.65C73.4653 15.8833 72.8866 16 72.2053 16H68.6493ZM69.8253 10.484H72.0093C72.6346 10.484 73.1153 10.3393 73.4513 10.05C73.7873 9.75133 73.9553 9.34067 73.9553 8.818C73.9553 8.32333 73.7873 7.92667 73.4513 7.628C73.1246 7.32933 72.6299 7.18 71.9673 7.18H69.8253V10.484ZM69.8253 15.02H72.0793C72.7513 15.02 73.2693 14.866 73.6333 14.558C73.9973 14.2407 74.1793 13.802 74.1793 13.242C74.1793 12.6913 73.9879 12.2527 73.6053 11.926C73.2226 11.59 72.7046 11.422 72.0513 11.422H69.8253V15.02ZM79.3112 16.168C78.7325 16.168 78.2518 16.07 77.8692 15.874C77.4865 15.678 77.2018 15.4167 77.0152 15.09C76.8285 14.7633 76.7352 14.4087 76.7352 14.026C76.7352 13.3167 77.0058 12.7707 77.5472 12.388C78.0885 12.0053 78.8258 11.814 79.7592 11.814H81.6352V11.73C81.6352 11.1233 81.4765 10.666 81.1592 10.358C80.8418 10.0407 80.4172 9.882 79.8852 9.882C79.4278 9.882 79.0312 9.99867 78.6952 10.232C78.3685 10.456 78.1632 10.7873 78.0792 11.226H76.8752C76.9218 10.722 77.0898 10.2973 77.3792 9.952C77.6778 9.60667 78.0465 9.34533 78.4852 9.168C78.9238 8.98133 79.3905 8.888 79.8852 8.888C80.8558 8.888 81.5838 9.14933 82.0692 9.672C82.5638 10.1853 82.8112 10.8713 82.8112 11.73V16H81.7612L81.6912 14.754C81.4952 15.146 81.2058 15.482 80.8232 15.762C80.4498 16.0327 79.9458 16.168 79.3112 16.168ZM79.4932 15.174C79.9412 15.174 80.3238 15.0573 80.6412 14.824C80.9678 14.5907 81.2152 14.2873 81.3832 13.914C81.5512 13.5407 81.6352 13.1487 81.6352 12.738V12.724H79.8572C79.1665 12.724 78.6765 12.8453 78.3872 13.088C78.1072 13.3213 77.9672 13.6153 77.9672 13.97C77.9672 14.334 78.0978 14.628 78.3592 14.852C78.6298 15.0667 79.0078 15.174 79.4932 15.174ZM84.5754 16V9.056H85.6394L85.7094 10.302C85.9334 9.86333 86.2554 9.518 86.6754 9.266C87.0954 9.014 87.5714 8.888 88.1034 8.888C88.9247 8.888 89.578 9.14 90.0634 9.644C90.558 10.1387 90.8054 10.904 90.8054 11.94V16H89.6294V12.066C89.6294 10.6193 89.032 9.896 87.8374 9.896C87.24 9.896 86.7407 10.1153 86.3394 10.554C85.9474 10.9833 85.7514 11.5993 85.7514 12.402V16H84.5754ZM95.3311 13.816C94.9391 13.816 94.5798 13.7647 94.2531 13.662L93.5531 14.32C93.6558 14.3947 93.7818 14.46 93.9311 14.516C94.0898 14.5627 94.3138 14.6093 94.6031 14.656C94.8924 14.6933 95.2984 14.7353 95.8211 14.782C96.7544 14.8473 97.4218 15.062 97.8231 15.426C98.2244 15.79 98.4251 16.266 98.4251 16.854C98.4251 17.2553 98.3131 17.638 98.0891 18.002C97.8744 18.366 97.5384 18.6647 97.0811 18.898C96.6331 19.1313 96.0544 19.248 95.3451 19.248C94.7198 19.248 94.1644 19.164 93.6791 18.996C93.1938 18.8373 92.8158 18.59 92.5451 18.254C92.2744 17.9273 92.1391 17.512 92.1391 17.008C92.1391 16.7467 92.2091 16.462 92.3491 16.154C92.4891 15.8553 92.7504 15.5707 93.1331 15.3C92.9278 15.216 92.7504 15.1273 92.6011 15.034C92.4611 14.9313 92.3304 14.8193 92.2091 14.698V14.376L93.3991 13.2C92.8484 12.7333 92.5731 12.1173 92.5731 11.352C92.5731 10.8947 92.6804 10.4793 92.8951 10.106C93.1098 9.73267 93.4224 9.43867 93.8331 9.224C94.2438 9 94.7431 8.888 95.3311 8.888C95.7324 8.888 96.0964 8.944 96.4231 9.056H98.9851V9.938L97.6831 9.994C97.9538 10.386 98.0891 10.8387 98.0891 11.352C98.0891 11.8093 97.9771 12.2247 97.7531 12.598C97.5384 12.9713 97.2258 13.27 96.8151 13.494C96.4138 13.7087 95.9191 13.816 95.3311 13.816ZM95.3311 12.85C95.8258 12.85 96.2178 12.724 96.5071 12.472C96.8058 12.2107 96.9551 11.8373 96.9551 11.352C96.9551 10.876 96.8058 10.512 96.5071 10.26C96.2178 9.99867 95.8258 9.868 95.3311 9.868C94.8271 9.868 94.4258 9.99867 94.1271 10.26C93.8378 10.512 93.6931 10.876 93.6931 11.352C93.6931 11.8373 93.8378 12.2107 94.1271 12.472C94.4258 12.724 94.8271 12.85 95.3311 12.85ZM93.2871 16.896C93.2871 17.3627 93.4831 17.708 93.8751 17.932C94.2671 18.1653 94.7571 18.282 95.3451 18.282C95.9238 18.282 96.3858 18.156 96.7311 17.904C97.0858 17.652 97.2631 17.316 97.2631 16.896C97.2631 16.5973 97.1418 16.336 96.8991 16.112C96.6564 15.8973 96.2084 15.7713 95.5551 15.734C95.0418 15.6967 94.5984 15.65 94.2251 15.594C93.8424 15.7993 93.5904 16.0187 93.4691 16.252C93.3478 16.4947 93.2871 16.7093 93.2871 16.896ZM100.312 16V5.92H101.488V16H100.312ZM105.725 16.168C105.147 16.168 104.666 16.07 104.283 15.874C103.901 15.678 103.616 15.4167 103.429 15.09C103.243 14.7633 103.149 14.4087 103.149 14.026C103.149 13.3167 103.42 12.7707 103.961 12.388C104.503 12.0053 105.24 11.814 106.173 11.814H108.049V11.73C108.049 11.1233 107.891 10.666 107.573 10.358C107.256 10.0407 106.831 9.882 106.299 9.882C105.842 9.882 105.445 9.99867 105.109 10.232C104.783 10.456 104.577 10.7873 104.493 11.226H103.289C103.336 10.722 103.504 10.2973 103.793 9.952C104.092 9.60667 104.461 9.34533 104.899 9.168C105.338 8.98133 105.805 8.888 106.299 8.888C107.27 8.888 107.998 9.14933 108.483 9.672C108.978 10.1853 109.225 10.8713 109.225 11.73V16H108.175L108.105 14.754C107.909 15.146 107.62 15.482 107.237 15.762C106.864 16.0327 106.36 16.168 105.725 16.168ZM105.907 15.174C106.355 15.174 106.738 15.0573 107.055 14.824C107.382 14.5907 107.629 14.2873 107.797 13.914C107.965 13.5407 108.049 13.1487 108.049 12.738V12.724H106.271C105.581 12.724 105.091 12.8453 104.801 13.088C104.521 13.3213 104.381 13.6153 104.381 13.97C104.381 14.334 104.512 14.628 104.773 14.852C105.044 15.0667 105.422 15.174 105.907 15.174ZM114.139 16.168C113.449 16.168 112.842 16.0093 112.319 15.692C111.806 15.3747 111.405 14.9407 111.115 14.39C110.835 13.8393 110.695 13.214 110.695 12.514C110.695 11.814 110.84 11.1933 111.129 10.652C111.419 10.1013 111.82 9.672 112.333 9.364C112.847 9.04667 113.453 8.888 114.153 8.888C114.723 8.888 115.227 9.00467 115.665 9.238C116.104 9.47133 116.445 9.798 116.687 10.218V5.92H117.863V16H116.799L116.687 14.852C116.463 15.188 116.141 15.4913 115.721 15.762C115.301 16.0327 114.774 16.168 114.139 16.168ZM114.265 15.146C114.732 15.146 115.143 15.0387 115.497 14.824C115.861 14.6 116.141 14.292 116.337 13.9C116.543 13.508 116.645 13.0507 116.645 12.528C116.645 12.0053 116.543 11.548 116.337 11.156C116.141 10.764 115.861 10.4607 115.497 10.246C115.143 10.022 114.732 9.91 114.265 9.91C113.808 9.91 113.397 10.022 113.033 10.246C112.679 10.4607 112.399 10.764 112.193 11.156C111.997 11.548 111.899 12.0053 111.899 12.528C111.899 13.0507 111.997 13.508 112.193 13.9C112.399 14.292 112.679 14.6 113.033 14.824C113.397 15.0387 113.808 15.146 114.265 15.146ZM122.902 16.168C122.24 16.168 121.652 16.0187 121.138 15.72C120.625 15.412 120.219 14.9873 119.92 14.446C119.631 13.9047 119.486 13.2653 119.486 12.528C119.486 11.8 119.631 11.1653 119.92 10.624C120.21 10.0733 120.611 9.64867 121.124 9.35C121.647 9.042 122.249 8.888 122.93 8.888C123.602 8.888 124.181 9.042 124.666 9.35C125.161 9.64867 125.539 10.0453 125.8 10.54C126.062 11.0347 126.192 11.5667 126.192 12.136C126.192 12.2387 126.188 12.3413 126.178 12.444C126.178 12.5467 126.178 12.6633 126.178 12.794H120.648C120.676 13.326 120.798 13.7693 121.012 14.124C121.236 14.4693 121.512 14.7307 121.838 14.908C122.174 15.0853 122.529 15.174 122.902 15.174C123.388 15.174 123.794 15.062 124.12 14.838C124.447 14.614 124.685 14.3107 124.834 13.928H125.996C125.81 14.572 125.45 15.1087 124.918 15.538C124.396 15.958 123.724 16.168 122.902 16.168ZM122.902 9.882C122.342 9.882 121.843 10.0547 121.404 10.4C120.975 10.736 120.728 11.2307 120.662 11.884H125.03C125.002 11.2587 124.788 10.7687 124.386 10.414C123.985 10.0593 123.49 9.882 122.902 9.882ZM130.411 16.168C129.58 16.168 128.89 15.958 128.339 15.538C127.788 15.118 127.466 14.5487 127.373 13.83H128.577C128.652 14.194 128.843 14.5113 129.151 14.782C129.468 15.0433 129.893 15.174 130.425 15.174C130.92 15.174 131.284 15.0713 131.517 14.866C131.75 14.6513 131.867 14.3993 131.867 14.11C131.867 13.69 131.713 13.41 131.405 13.27C131.106 13.13 130.682 13.004 130.131 12.892C129.758 12.8173 129.384 12.71 129.011 12.57C128.638 12.43 128.325 12.234 128.073 11.982C127.821 11.7207 127.695 11.38 127.695 10.96C127.695 10.3533 127.919 9.85867 128.367 9.476C128.824 9.084 129.44 8.888 130.215 8.888C130.952 8.888 131.554 9.07467 132.021 9.448C132.497 9.812 132.772 10.3347 132.847 11.016H131.685C131.638 10.6613 131.484 10.386 131.223 10.19C130.971 9.98467 130.63 9.882 130.201 9.882C129.781 9.882 129.454 9.97067 129.221 10.148C128.997 10.3253 128.885 10.5587 128.885 10.848C128.885 11.128 129.03 11.3473 129.319 11.506C129.618 11.6647 130.019 11.8 130.523 11.912C130.952 12.0053 131.358 12.122 131.741 12.262C132.133 12.3927 132.45 12.5933 132.693 12.864C132.945 13.1253 133.071 13.508 133.071 14.012C133.08 14.6373 132.842 15.1553 132.357 15.566C131.881 15.9673 131.232 16.168 130.411 16.168ZM134.751 16V5.92H135.927V10.246C136.16 9.81667 136.492 9.48533 136.921 9.252C137.35 9.00933 137.817 8.888 138.321 8.888C139.124 8.888 139.768 9.14 140.253 9.644C140.738 10.1387 140.981 10.904 140.981 11.94V16H139.819V12.066C139.819 10.6193 139.236 9.896 138.069 9.896C137.462 9.896 136.954 10.1153 136.543 10.554C136.132 10.9833 135.927 11.5993 135.927 12.402V16H134.751Z" fill="#555555"/>
</svg>
