<svg width="42" height="22" fill="none" xmlns="http://www.w3.org/2000/svg"><path d="M7.81 3.585a.2.2 0 0 1 .38 0L9.751 8.39a.2.2 0 0 0 .19.138h5.052a.2.2 0 0 1 .117.362l-4.086 2.969a.2.2 0 0 0-.073.223l1.561 4.805a.2.2 0 0 1-.308.223l-4.086-2.969a.2.2 0 0 0-.236 0l-4.086 2.97a.2.2 0 0 1-.308-.224l1.56-4.805a.2.2 0 0 0-.072-.223L.89 8.889a.2.2 0 0 1 .117-.361H6.06a.2.2 0 0 0 .19-.138l1.56-4.805Z" fill="#086CF9"/><path d="M27.474 16v-2.1h-4.97v-.91l4.76-6.79h1.372v6.664h1.456V13.9h-1.456V16h-1.162Zm-3.668-3.136h3.724V7.502l-3.724 5.362Zm8.043 3.206a.825.825 0 0 1-.588-.224.807.807 0 0 1-.224-.574.76.76 0 0 1 .224-.56.798.798 0 0 1 .588-.238c.224 0 .41.08.56.238.158.15.238.336.238.56 0 .224-.08.415-.238.574a.76.76 0 0 1-.56.224Zm5.73.098c-.672 0-1.255-.121-1.75-.364a3.11 3.11 0 0 1-1.19-.994 3.266 3.266 0 0 1-.532-1.456h1.148c.112.541.373.98.784 1.316.41.327.929.49 1.554.49.467 0 .868-.107 1.204-.322.336-.224.593-.523.77-.896.187-.373.28-.789.28-1.246 0-.728-.205-1.316-.616-1.764-.41-.448-.943-.672-1.596-.672-.541 0-1.003.121-1.386.364s-.663.56-.84.952h-1.12l.84-5.376h5.138v1.022h-4.228l-.574 2.982c.224-.27.532-.495.924-.672a3.363 3.363 0 0 1 1.372-.266c.644 0 1.204.15 1.68.448a3.1 3.1 0 0 1 1.134 1.218c.27.513.406 1.097.406 1.75 0 .625-.135 1.204-.406 1.736a3.057 3.057 0 0 1-1.162 1.274c-.504.317-1.115.476-1.834.476Z" fill="#555"/></svg>