<svg width="142" height="22" fill="none" xmlns="http://www.w3.org/2000/svg"><path d="M8 3a5.631 5.631 0 0 0-5.625 5.625c0 1.048.29 2.07.84 2.958l4.465 7.195a.469.469 0 0 0 .398.222h.004a.469.469 0 0 0 .398-.228l4.352-7.265c.519-.869.793-1.865.793-2.882A5.631 5.631 0 0 0 8 3Zm4.027 8.026L8.071 17.63l-4.06-6.542a4.682 4.682 0 0 1-.705-2.464A4.704 4.704 0 0 1 8 3.931a4.7 4.7 0 0 1 4.69 4.694c0 .848-.231 1.678-.663 2.4Z" fill="#000"/><path d="M8 5.813a2.816 2.816 0 0 0-2.813 2.812A2.809 2.809 0 0 0 8 11.438a2.807 2.807 0 0 0 2.813-2.813A2.816 2.816 0 0 0 8 5.812Zm0 4.693a1.883 1.883 0 0 1-1.881-1.881c0-1.034.847-1.881 1.881-1.881s1.878.847 1.878 1.881A1.879 1.879 0 0 1 8 10.506Z" fill="#000"/><path d="M25.036 16V6.2h3.01c1.727 0 2.996.439 3.808 1.316.821.877 1.232 2.081 1.232 3.612 0 1.503-.41 2.693-1.232 3.57-.812.868-2.081 1.302-3.808 1.302h-3.01Zm1.176-.98h1.806c.952 0 1.708-.154 2.268-.462.57-.317.975-.765 1.218-1.344.243-.588.364-1.283.364-2.086 0-.821-.121-1.526-.364-2.114a2.696 2.696 0 0 0-1.218-1.358c-.56-.317-1.316-.476-2.268-.476h-1.806v7.84Zm8.502.98V5.92h1.176v4.326c.233-.43.565-.76.994-.994.43-.243.896-.364 1.4-.364.803 0 1.447.252 1.932.756.485.495.728 1.26.728 2.296V16h-1.162v-3.934c0-1.447-.583-2.17-1.75-2.17-.607 0-1.115.22-1.526.658-.41.43-.616 1.045-.616 1.848V16h-1.176Zm10.322.168c-.579 0-1.06-.098-1.442-.294-.383-.196-.668-.457-.854-.784a2.108 2.108 0 0 1-.28-1.064c0-.71.27-1.255.812-1.638.541-.383 1.278-.574 2.212-.574h1.876v-.084c0-.607-.159-1.064-.476-1.372-.318-.317-.742-.476-1.274-.476-.458 0-.854.117-1.19.35-.327.224-.532.555-.616.994H42.6c.046-.504.214-.929.504-1.274a2.85 2.85 0 0 1 1.106-.784c.438-.187.905-.28 1.4-.28.97 0 1.698.261 2.184.784.494.513.742 1.2.742 2.058V16h-1.05l-.07-1.246a2.79 2.79 0 0 1-.868 1.008c-.374.27-.878.406-1.512.406Zm.182-.994c.448 0 .83-.117 1.148-.35.326-.233.574-.537.742-.91.168-.373.252-.765.252-1.176v-.014h-1.778c-.69 0-1.18.121-1.47.364a1.1 1.1 0 0 0-.42.882c0 .364.13.658.392.882.27.215.648.322 1.134.322ZM50.3 16V5.92h1.176v6.062l2.842-2.926h1.442l-3.08 3.136L56.152 16h-1.498l-3.178-3.598V16H50.3Zm9.31.168c-.579 0-1.06-.098-1.442-.294-.383-.196-.667-.457-.854-.784a2.108 2.108 0 0 1-.28-1.064c0-.71.27-1.255.812-1.638.541-.383 1.279-.574 2.212-.574h1.876v-.084c0-.607-.159-1.064-.476-1.372-.317-.317-.742-.476-1.274-.476-.457 0-.854.117-1.19.35-.327.224-.532.555-.616.994h-1.204c.047-.504.215-.929.504-1.274a2.85 2.85 0 0 1 1.106-.784c.439-.187.905-.28 1.4-.28.97 0 1.699.261 2.184.784.495.513.742 1.2.742 2.058V16h-1.05l-.07-1.246a2.788 2.788 0 0 1-.868 1.008c-.373.27-.877.406-1.512.406Zm.182-.994c.448 0 .83-.117 1.148-.35.327-.233.574-.537.742-.91.168-.373.252-.765.252-1.176v-.014h-1.778c-.69 0-1.18.121-1.47.364a1.1 1.1 0 0 0-.42.882c0 .364.13.658.392.882.27.215.649.322 1.134.322Zm8.857.826V6.2h3.444c.69 0 1.26.112 1.708.336.458.215.798.513 1.022.896.224.373.336.793.336 1.26 0 .635-.172 1.134-.518 1.498a2.643 2.643 0 0 1-1.218.756c.364.065.696.21.994.434.299.224.532.504.7.84.178.336.266.705.266 1.106 0 .495-.121.947-.364 1.358-.242.401-.602.723-1.078.966-.476.233-1.054.35-1.736.35H68.65Zm1.176-5.516h2.184c.626 0 1.106-.145 1.442-.434.336-.299.504-.71.504-1.232 0-.495-.168-.891-.504-1.19-.326-.299-.821-.448-1.484-.448h-2.142v3.304Zm0 4.536h2.254c.672 0 1.19-.154 1.554-.462.364-.317.546-.756.546-1.316 0-.55-.191-.99-.574-1.316-.382-.336-.9-.504-1.554-.504h-2.226v3.598Zm9.486 1.148c-.579 0-1.06-.098-1.442-.294-.382-.196-.667-.457-.854-.784a2.108 2.108 0 0 1-.28-1.064c0-.71.27-1.255.812-1.638.541-.383 1.279-.574 2.212-.574h1.876v-.084c0-.607-.159-1.064-.476-1.372-.317-.317-.742-.476-1.274-.476-.457 0-.854.117-1.19.35-.326.224-.532.555-.616.994h-1.204c.047-.504.215-.929.504-1.274a2.85 2.85 0 0 1 1.106-.784c.439-.187.906-.28 1.4-.28.97 0 1.699.261 2.184.784.495.513.742 1.2.742 2.058V16h-1.05l-.07-1.246a2.79 2.79 0 0 1-.868 1.008c-.373.27-.877.406-1.512.406Zm.182-.994c.448 0 .83-.117 1.148-.35.327-.233.574-.537.742-.91.168-.373.252-.765.252-1.176v-.014h-1.778c-.69 0-1.18.121-1.47.364a1.1 1.1 0 0 0-.42.882c0 .364.13.658.392.882.27.215.649.322 1.134.322Zm5.082.826V9.056h1.064l.07 1.246c.224-.439.546-.784.966-1.036.42-.252.896-.378 1.428-.378.822 0 1.475.252 1.96.756.495.495.742 1.26.742 2.296V16H89.63v-3.934c0-1.447-.597-2.17-1.792-2.17-.597 0-1.096.22-1.498.658-.392.43-.588 1.045-.588 1.848V16h-1.176Zm10.756-2.184a3.58 3.58 0 0 1-1.078-.154l-.7.658c.103.075.229.14.378.196.159.047.383.093.672.14.29.037.695.08 1.218.126.933.065 1.6.28 2.002.644.401.364.602.84.602 1.428 0 .401-.112.784-.336 1.148-.215.364-.55.663-1.008.896-.448.233-1.027.35-1.736.35-.625 0-1.18-.084-1.666-.252-.485-.159-.863-.406-1.134-.742-.27-.327-.406-.742-.406-1.246 0-.261.07-.546.21-.854.14-.299.401-.583.784-.854a3.53 3.53 0 0 1-.532-.266 3.384 3.384 0 0 1-.392-.336v-.322L93.4 13.2c-.55-.467-.826-1.083-.826-1.848 0-.457.107-.873.322-1.246.215-.373.527-.667.938-.882.41-.224.91-.336 1.498-.336.401 0 .765.056 1.092.168h2.562v.882l-1.302.056c.27.392.406.845.406 1.358 0 .457-.112.873-.336 1.246a2.35 2.35 0 0 1-.938.896c-.401.215-.896.322-1.484.322Zm0-.966c.495 0 .887-.126 1.176-.378.299-.261.448-.635.448-1.12 0-.476-.15-.84-.448-1.092-.29-.261-.681-.392-1.176-.392-.504 0-.905.13-1.204.392-.29.252-.434.616-.434 1.092 0 .485.145.859.434 1.12.299.252.7.378 1.204.378Zm-2.044 4.046c0 .467.196.812.588 1.036.392.233.882.35 1.47.35.579 0 1.04-.126 1.386-.378.355-.252.532-.588.532-1.008 0-.299-.121-.56-.364-.784-.243-.215-.69-.34-1.344-.378a17.828 17.828 0 0 1-1.33-.14c-.383.205-.635.425-.756.658-.121.243-.182.457-.182.644Zm7.025-.896V5.92h1.176V16h-1.176Zm5.413.168c-.578 0-1.059-.098-1.442-.294-.382-.196-.667-.457-.854-.784a2.115 2.115 0 0 1-.28-1.064c0-.71.271-1.255.812-1.638.542-.383 1.279-.574 2.212-.574h1.876v-.084c0-.607-.158-1.064-.476-1.372-.317-.317-.742-.476-1.274-.476-.457 0-.854.117-1.19.35-.326.224-.532.555-.616.994h-1.204c.047-.504.215-.929.504-1.274a2.858 2.858 0 0 1 1.106-.784c.439-.187.906-.28 1.4-.28.971 0 1.699.261 2.184.784.495.513.742 1.2.742 2.058V16h-1.05l-.07-1.246a2.785 2.785 0 0 1-.868 1.008c-.373.27-.877.406-1.512.406Zm.182-.994c.448 0 .831-.117 1.148-.35a2.21 2.21 0 0 0 .742-.91c.168-.373.252-.765.252-1.176v-.014h-1.778c-.69 0-1.18.121-1.47.364a1.1 1.1 0 0 0-.42.882c0 .364.131.658.392.882.271.215.649.322 1.134.322Zm8.232.994c-.69 0-1.297-.159-1.82-.476a3.314 3.314 0 0 1-1.204-1.302c-.28-.55-.42-1.176-.42-1.876s.145-1.32.434-1.862c.29-.55.691-.98 1.204-1.288.514-.317 1.12-.476 1.82-.476.57 0 1.074.117 1.512.35.439.233.78.56 1.022.98V5.92h1.176V16h-1.064l-.112-1.148c-.224.336-.546.64-.966.91-.42.27-.947.406-1.582.406Zm.126-1.022a2.33 2.33 0 0 0 1.232-.322c.364-.224.644-.532.84-.924.206-.392.308-.85.308-1.372 0-.523-.102-.98-.308-1.372a2.143 2.143 0 0 0-.84-.91 2.255 2.255 0 0 0-1.232-.336 2.275 2.275 0 0 0-2.072 1.246c-.196.392-.294.85-.294 1.372 0 .523.098.98.294 1.372.206.392.486.7.84.924a2.38 2.38 0 0 0 1.232.322Zm8.637 1.022c-.662 0-1.25-.15-1.764-.448a3.337 3.337 0 0 1-1.218-1.274c-.289-.541-.434-1.18-.434-1.918 0-.728.145-1.363.434-1.904.29-.55.691-.975 1.204-1.274.523-.308 1.125-.462 1.806-.462.672 0 1.251.154 1.736.462.495.299.873.695 1.134 1.19a3.358 3.358 0 0 1 .378 1.904v.35h-5.53c.028.532.15.975.364 1.33.224.345.5.607.826.784a2.25 2.25 0 0 0 1.064.266c.486 0 .892-.112 1.218-.336.327-.224.565-.527.714-.91h1.162a3.151 3.151 0 0 1-1.078 1.61c-.522.42-1.194.63-2.016.63Zm0-6.286c-.56 0-1.059.173-1.498.518-.429.336-.676.83-.742 1.484h4.368c-.028-.625-.242-1.115-.644-1.47-.401-.355-.896-.532-1.484-.532Zm7.509 6.286c-.831 0-1.521-.21-2.072-.63-.551-.42-.873-.99-.966-1.708h1.204c.075.364.266.681.574.952.317.261.742.392 1.274.392.495 0 .859-.103 1.092-.308.233-.215.35-.467.35-.756 0-.42-.154-.7-.462-.84-.299-.14-.723-.266-1.274-.378a7.224 7.224 0 0 1-1.12-.322 2.594 2.594 0 0 1-.938-.588c-.252-.261-.378-.602-.378-1.022 0-.607.224-1.101.672-1.484.457-.392 1.073-.588 1.848-.588.737 0 1.339.187 1.806.56.476.364.751.887.826 1.568h-1.162c-.047-.355-.201-.63-.462-.826-.252-.205-.593-.308-1.022-.308-.42 0-.747.089-.98.266a.85.85 0 0 0-.336.7c0 .28.145.5.434.658.299.159.7.294 1.204.406.429.093.835.21 1.218.35.392.13.709.331.952.602.252.261.378.644.378 1.148.009.625-.229 1.143-.714 1.554-.476.401-1.125.602-1.946.602Zm4.34-.168V5.92h1.176v4.326c.233-.43.565-.76.994-.994a2.796 2.796 0 0 1 1.4-.364c.803 0 1.447.252 1.932.756.485.495.728 1.26.728 2.296V16h-1.162v-3.934c0-1.447-.583-2.17-1.75-2.17-.607 0-1.115.22-1.526.658-.411.43-.616 1.045-.616 1.848V16h-1.176Z" fill="#555"/></svg>